# xmcd
#
# Track frame offsets:
#	186
#	17517
#	29902
#	41154
#	65976
#	77449
#	89888
#
# Disc length: 1663 seconds
#
# Revision: 3
# Processed by: cddbd v1.5.2PL0 Copyright (c) Steve Scherf et al.
# Submitted via: audiograbber 1.83.01
#
DISCID=60067d07
DTITLE=Kraftwerk - 3-D The Catalogue [CD 6) - Techno Pop
DYEAR=2017
DGENRE=Electronic
TTITLE0=Electric Cafe [live]
TTITLE1=The Telephone Call [live]
TTITLE2=House Phone [live]
TTITLE3=Sex Object [live]
TTITLE4=Boing Boom Tschak [live]
TTITLE5=Techno Pop [live]
TTITLE6=Music Non Stop [live]
EXTD=
EXTT0=
EXTT1=
EXTT2=
EXTT3=
EXTT4=
EXTT5=
EXTT6=
PLAYORDER=
